# xmcd
#
# Track frame offsets: 
#        150
#        18605
#        36595
#        54720
#        77019
#        97876
#        119920
#        146408
#        164560
#        191057
#        213870
#        241990
#        271495
#        289649
#
# Disc length: 4198 seconds
#
# Revision: 0
# Processed by: cddbd v1.5.2PL0 Copyright (c) Steve Scherf et al.
# Submitted via: ExactAudioCopy v0.95a5
#
DISCID=d310640e
DTITLE=未知艺术家 - BEST OF R&B
DYEAR=1998
DGENRE=R&B
TTITLE0=MOONNIGHT
TTITLE1=WHY U WANNA TRIP ON ME
TTITLE2=PUSH
TTITLE3=WHEN DOVES CRY
TTITLE4=MOVE STAR
TTITLE5=THINKIN'ABOUT YOU 
TTITLE6=I NEED YOU
TTITLE7=READY OR NOT
TTITLE8=YOU'RE MY HEART, YOU'RE MY SOUL
TTITLE9=I'LL BE MISSING YOU 
TTITLE10=GET DOWN TONGHT
TTITLE11=I WANT TO KNOW WHAT LOVE IS
TTITLE12=BE MY FRIEND
TTITLE13=NOSTRADAME
EXTD=
EXTT0=
EXTT1=
EXTT2=
EXTT3=
EXTT4=
EXTT5=
EXTT6=
EXTT7=
EXTT8=
EXTT9=
EXTT10=
EXTT11=
EXTT12=
EXTT13=
PLAYORDER=
